<svg width="18" height="19" fill="none" xmlns="http://www.w3.org/2000/svg"><path d="M14.25 9.38a5.25 5.25 0 11-10.5 0c0-.299.031-.59.086-.874H2V15.5c0 .487.394.88.88.88h12.241A.88.88 0 0016 15.5V8.506h-1.836c.054.283.086.575.086.875zM9 12.88a3.501 3.501 0 10-.002-7.002A3.501 3.501 0 009 12.88zm4.2-7.174h2.098a.527.527 0 00.527-.525V3.082a.527.527 0 00-.527-.526H13.2a.527.527 0 00-.527.526v2.099a.53.53 0 00.527.525zm4.55 10.48a1.95 1.95 0 01-1.944 1.945H2.194A1.95 1.95 0 01.25 16.186V2.575A1.95 1.95 0 012.194.63h13.612a1.95 1.95 0 011.944 1.944v13.611z" fill="#F53838"/></svg>