<svg width="17" height="14" fill="none" xmlns="http://www.w3.org/2000/svg"><path d="M15.234 3.343c.007.143.008.287.008.427 0 4.375-3.326 9.416-9.413 9.416A9.336 9.336 0 01.758 11.7a6.6 6.6 0 00.789.044c1.55 0 2.977-.527 4.109-1.416a3.316 3.316 0 01-3.09-2.296 3.325 3.325 0 001.492-.058A3.311 3.311 0 011.404 4.73v-.04a3.32 3.32 0 001.5.414A3.308 3.308 0 011.88.683a9.408 9.408 0 006.82 3.46 3.31 3.31 0 015.638-3.02 6.645 6.645 0 002.1-.803 3.325 3.325 0 01-1.454 1.833 6.648 6.648 0 001.9-.524 6.709 6.709 0 01-1.65 1.714z" fill="#F53838"/></svg>